name rise34.3697peak60.0498fall86.3158.mot
datacolumns 19
datarows 33
range 8.12830500000000 8.18164500000000
endheader
time	ground_force1_vx	ground_force1_vy	ground_force1_vz	ground_force1_px	ground_force1_py	ground_force1_pz	ground_force2_vx	ground_force2_vy	ground_force2_vz	ground_force2_px	ground_force2_py	ground_force2_pz	ground_torque1_x	ground_torque1_y	ground_torque1_z	ground_torque2_x	ground_torque2_y	ground_torque2_z	
8.12830500000000	4.23872300000000	680.79313800000000	47.24339900000000	0.30977500000000	0.00000000000000	0.13025600000000	0.00000000000000	0.00000000000000	0.00000000000000	0.00000000000000	0.00000000000000	0.00000000000000	0.00000000000000	26.86744900000000	0.00000000000000	0.00000000000000	0.00000000000000	0.00000000000000	
8.12996900000000	3.74351800000000	681.15073500000005	47.27826100000000	0.30816300000000	0.00000000000000	0.13031800000000	0.00000000000000	0.00000000000000	0.00000000000000	0.00000000000000	0.00000000000000	0.00000000000000	0.00000000000000	26.91924500000000	0.00000000000000	0.00000000000000	0.00000000000000	0.00000000000000	
8.13163300000000	3.23974300000000	681.54681000000005	47.31365100000000	0.30656500000000	0.00000000000000	0.13037600000000	0.00000000000000	0.00000000000000	0.00000000000000	0.00000000000000	0.00000000000000	0.00000000000000	0.00000000000000	26.97562500000000	0.00000000000000	0.00000000000000	0.00000000000000	0.00000000000000	
8.13330100000000	2.72703300000000	681.98074199999996	47.34936300000000	0.30498300000000	0.00000000000000	0.13043200000000	0.00000000000000	0.00000000000000	0.00000000000000	0.00000000000000	0.00000000000000	0.00000000000000	0.00000000000000	27.03656400000000	0.00000000000000	0.00000000000000	0.00000000000000	0.00000000000000	
8.13496900000000	2.20504600000000	682.45203800000002	47.38521900000000	0.30341600000000	0.00000000000000	0.13048400000000	0.00000000000000	0.00000000000000	0.00000000000000	0.00000000000000	0.00000000000000	0.00000000000000	0.00000000000000	27.10204400000000	0.00000000000000	0.00000000000000	0.00000000000000	0.00000000000000	
8.13663800000000	1.67346100000000	682.96033799999998	47.42106200000000	0.30186800000000	0.00000000000000	0.13053400000000	0.00000000000000	0.00000000000000	0.00000000000000	0.00000000000000	0.00000000000000	0.00000000000000	0.00000000000000	27.17204800000000	0.00000000000000	0.00000000000000	0.00000000000000	0.00000000000000	
8.13830600000000	1.13198400000000	683.50541599999997	47.45676300000000	0.30033700000000	0.00000000000000	0.13058000000000	0.00000000000000	0.00000000000000	0.00000000000000	0.00000000000000	0.00000000000000	0.00000000000000	0.00000000000000	27.24656600000000	0.00000000000000	0.00000000000000	0.00000000000000	0.00000000000000	
8.13996700000000	0.58034500000000	684.08717999999999	47.49221700000000	0.29882700000000	0.00000000000000	0.13062200000000	0.00000000000000	0.00000000000000	0.00000000000000	0.00000000000000	0.00000000000000	0.00000000000000	0.00000000000000	27.32558900000000	0.00000000000000	0.00000000000000	0.00000000000000	0.00000000000000	
8.14163500000000	0.01830400000000	684.70567300000005	47.52734600000000	0.29733700000000	0.00000000000000	0.13066200000000	0.00000000000000	0.00000000000000	0.00000000000000	0.00000000000000	0.00000000000000	0.00000000000000	0.00000000000000	27.40911400000000	0.00000000000000	0.00000000000000	0.00000000000000	0.00000000000000	
8.14330400000000	-0.55435300000000	685.36106700000005	47.56209800000000	0.29586800000000	0.00000000000000	0.13069800000000	0.00000000000000	0.00000000000000	0.00000000000000	0.00000000000000	0.00000000000000	0.00000000000000	0.00000000000000	27.49713900000000	0.00000000000000	0.00000000000000	0.00000000000000	0.00000000000000	
8.14497300000000	-1.13780700000000	686.05367000000001	47.59644700000000	0.29442200000000	0.00000000000000	0.13073000000000	0.00000000000000	0.00000000000000	0.00000000000000	0.00000000000000	0.00000000000000	0.00000000000000	0.00000000000000	27.58966500000000	0.00000000000000	0.00000000000000	0.00000000000000	0.00000000000000	
8.14664000000000	-1.73221000000000	686.78390999999999	47.63039500000000	0.29299800000000	0.00000000000000	0.13075900000000	0.00000000000000	0.00000000000000	0.00000000000000	0.00000000000000	0.00000000000000	0.00000000000000	0.00000000000000	27.68669500000000	0.00000000000000	0.00000000000000	0.00000000000000	0.00000000000000	
8.14830500000000	-2.33768300000000	687.55234399999995	47.66397000000000	0.29159900000000	0.00000000000000	0.13078400000000	0.00000000000000	0.00000000000000	0.00000000000000	0.00000000000000	0.00000000000000	0.00000000000000	0.00000000000000	27.78823500000000	0.00000000000000	0.00000000000000	0.00000000000000	0.00000000000000	
8.14997200000000	-2.95431100000000	688.35964100000001	47.69722600000000	0.29022300000000	0.00000000000000	0.13080500000000	0.00000000000000	0.00000000000000	0.00000000000000	0.00000000000000	0.00000000000000	0.00000000000000	0.00000000000000	27.89429000000000	0.00000000000000	0.00000000000000	0.00000000000000	0.00000000000000	
8.15163900000000	-3.58214800000000	689.20658400000002	47.73024500000000	0.28887300000000	0.00000000000000	0.13082200000000	0.00000000000000	0.00000000000000	0.00000000000000	0.00000000000000	0.00000000000000	0.00000000000000	0.00000000000000	28.00486800000000	0.00000000000000	0.00000000000000	0.00000000000000	0.00000000000000	
8.15330600000000	-4.22121300000000	690.09405700000002	47.76313300000000	0.28754800000000	0.00000000000000	0.13083600000000	0.00000000000000	0.00000000000000	0.00000000000000	0.00000000000000	0.00000000000000	0.00000000000000	0.00000000000000	28.11997600000000	0.00000000000000	0.00000000000000	0.00000000000000	0.00000000000000	
8.15496700000000	-4.87149100000000	691.02304300000003	47.79602100000000	0.28624800000000	0.00000000000000	0.13084600000000	0.00000000000000	0.00000000000000	0.00000000000000	0.00000000000000	0.00000000000000	0.00000000000000	0.00000000000000	28.23962000000000	0.00000000000000	0.00000000000000	0.00000000000000	0.00000000000000	
8.15663900000000	-5.53293400000000	691.99460899999997	47.82906700000000	0.28497500000000	0.00000000000000	0.13085200000000	0.00000000000000	0.00000000000000	0.00000000000000	0.00000000000000	0.00000000000000	0.00000000000000	0.00000000000000	28.36380700000000	0.00000000000000	0.00000000000000	0.00000000000000	0.00000000000000	
8.15830700000000	-6.20545500000000	693.00990100000001	47.86245100000000	0.28372700000000	0.00000000000000	0.13085400000000	0.00000000000000	0.00000000000000	0.00000000000000	0.00000000000000	0.00000000000000	0.00000000000000	0.00000000000000	28.49254100000000	0.00000000000000	0.00000000000000	0.00000000000000	0.00000000000000	
8.15997000000000	-6.88893500000000	694.07013099999995	47.89637600000000	0.28250700000000	0.00000000000000	0.13085300000000	0.00000000000000	0.00000000000000	0.00000000000000	0.00000000000000	0.00000000000000	0.00000000000000	0.00000000000000	28.62582600000000	0.00000000000000	0.00000000000000	0.00000000000000	0.00000000000000	
8.16163600000000	-7.58322100000000	695.17656799999997	47.93107000000000	0.28131300000000	0.00000000000000	0.13084800000000	0.00000000000000	0.00000000000000	0.00000000000000	0.00000000000000	0.00000000000000	0.00000000000000	0.00000000000000	28.76366200000000	0.00000000000000	0.00000000000000	0.00000000000000	0.00000000000000	
8.16330200000000	-8.28812300000000	696.33052399999997	47.96677800000000	0.28014600000000	0.00000000000000	0.13083900000000	0.00000000000000	0.00000000000000	0.00000000000000	0.00000000000000	0.00000000000000	0.00000000000000	0.00000000000000	28.90604900000000	0.00000000000000	0.00000000000000	0.00000000000000	0.00000000000000	
8.16496600000000	-9.00341900000000	697.53334600000005	48.00376900000000	0.27900500000000	0.00000000000000	0.13082600000000	0.00000000000000	0.00000000000000	0.00000000000000	0.00000000000000	0.00000000000000	0.00000000000000	0.00000000000000	29.05298000000000	0.00000000000000	0.00000000000000	0.00000000000000	0.00000000000000	
8.16663700000000	-9.72885100000000	698.78639699999997	48.04233100000000	0.27789200000000	0.00000000000000	0.13080900000000	0.00000000000000	0.00000000000000	0.00000000000000	0.00000000000000	0.00000000000000	0.00000000000000	0.00000000000000	29.20444800000000	0.00000000000000	0.00000000000000	0.00000000000000	0.00000000000000	
8.16829900000000	-10.46413100000000	700.09104900000000	48.08276600000000	0.27680400000000	0.00000000000000	0.13078900000000	0.00000000000000	0.00000000000000	0.00000000000000	0.00000000000000	0.00000000000000	0.00000000000000	0.00000000000000	29.36043900000000	0.00000000000000	0.00000000000000	0.00000000000000	0.00000000000000	
8.16997200000000	-11.20893700000000	701.44866600000000	48.12539800000000	0.27574400000000	0.00000000000000	0.13076600000000	0.00000000000000	0.00000000000000	0.00000000000000	0.00000000000000	0.00000000000000	0.00000000000000	0.00000000000000	29.52093600000000	0.00000000000000	0.00000000000000	0.00000000000000	0.00000000000000	
8.17164000000000	-11.96291600000000	702.86059399999999	48.17056300000000	0.27470900000000	0.00000000000000	0.13073900000000	0.00000000000000	0.00000000000000	0.00000000000000	0.00000000000000	0.00000000000000	0.00000000000000	0.00000000000000	29.68591600000000	0.00000000000000	0.00000000000000	0.00000000000000	0.00000000000000	
8.17330000000000	-12.72568400000000	704.32814199999996	48.21861100000000	0.27370000000000	0.00000000000000	0.13070800000000	0.00000000000000	0.00000000000000	0.00000000000000	0.00000000000000	0.00000000000000	0.00000000000000	0.00000000000000	29.85535300000000	0.00000000000000	0.00000000000000	0.00000000000000	0.00000000000000	
8.17497100000000	-13.49682900000000	705.85257100000001	48.26990500000000	0.27271600000000	0.00000000000000	0.13067400000000	0.00000000000000	0.00000000000000	0.00000000000000	0.00000000000000	0.00000000000000	0.00000000000000	0.00000000000000	30.02921200000000	0.00000000000000	0.00000000000000	0.00000000000000	0.00000000000000	
8.17663700000000	-14.27591100000000	707.43508299999996	48.32481900000000	0.27175700000000	0.00000000000000	0.13063700000000	0.00000000000000	0.00000000000000	0.00000000000000	0.00000000000000	0.00000000000000	0.00000000000000	0.00000000000000	30.20745400000000	0.00000000000000	0.00000000000000	0.00000000000000	0.00000000000000	
8.17830200000000	-15.06246100000000	709.07679900000005	48.38373500000000	0.27082300000000	0.00000000000000	0.13059700000000	0.00000000000000	0.00000000000000	0.00000000000000	0.00000000000000	0.00000000000000	0.00000000000000	0.00000000000000	30.39003200000000	0.00000000000000	0.00000000000000	0.00000000000000	0.00000000000000	
8.17997300000000	-15.85598800000000	710.77875400000005	48.44704200000000	0.26991200000000	0.00000000000000	0.13055400000000	0.00000000000000	0.00000000000000	0.00000000000000	0.00000000000000	0.00000000000000	0.00000000000000	0.00000000000000	30.57689200000000	0.00000000000000	0.00000000000000	0.00000000000000	0.00000000000000	
8.18164500000000	-16.65597600000000	712.54187800000000	48.51513700000000	0.26902500000000	0.00000000000000	0.13050800000000	0.00000000000000	0.00000000000000	0.00000000000000	0.00000000000000	0.00000000000000	0.00000000000000	0.00000000000000	30.76797600000000	0.00000000000000	0.00000000000000	0.00000000000000	0.00000000000000	
